<svg xmlns="http://www.w3.org/2000/svg" width="100" height="100" x="0" y="0" viewBox="0 0 100 100" style="fill:#000"><path fill="#a1d3a2" d="M66,74H34c-2.761,0-5-2.239-5-5V38h42v31C71,71.761,68.761,74,66,74z"/><path fill="#a1d3a2" d="M37,74c0,0,0,8.261,0,10c0,2.209,1.791,4,4,4s4-1.791,4-4c0-1.739,0-10,0-10"/><path fill="#a1d3a2" d="M55,74c0,0,0,8.261,0,10c0,2.209,1.791,4,4,4s4-1.791,4-4c0-1.739,0-10,0-10"/><path fill="#a1d3a2" d="M24,42c0-2.209-1.791-4-4-4s-4,1.791-4,4c0,1.736,0,17.261,0,19c0,2.209,1.791,4,4,4s4-1.791,4-4	C24,59.261,24,43.736,24,42z"/><path fill="#a1d3a2" d="M84,42c0-2.209-1.791-4-4-4s-4,1.791-4,4c0,1.736,0,17.261,0,19c0,2.209,1.791,4,4,4s4-1.791,4-4	C84,59.261,84,43.736,84,42z"/><path fill="#a1d3a2" d="M50,16c-11.598,0-21,7.611-21,17h42C71,23.611,61.598,16,50,16z"/><circle cx="41.5" cy="26.5" r="2" fill="#444445"/><circle cx="58.5" cy="26.5" r="2" fill="#444445"/><path fill="#a1d3a2" d="M62.606,19.427l2.525-4.12c0.721-1.178,0.352-2.717-0.825-3.438	c-1.177-0.718-2.716-0.352-3.438,0.825l-2.822,4.605C59.685,17.849,61.208,18.574,62.606,19.427z"/><path fill="#a1d3a2" d="M37.394,19.427c1.399-0.853,2.921-1.578,4.561-2.129l-2.822-4.605	c-0.721-1.177-2.26-1.545-3.438-0.825c-1.177,0.722-1.546,2.261-0.825,3.438L37.394,19.427z"/><path fill="#1f212b" d="M66,75H34c-3.309,0-6-2.691-6-6V38c0-0.553,0.447-1,1-1h42c0.553,0,1,0.447,1,1v31	C72,72.309,69.309,75,66,75z M30,39v30c0,2.206,1.794,4,4,4h32c2.206,0,4-1.794,4-4V39H30z"/><path fill="#1f212b" d="M56.5,70h-18c-3.032,0-5.5-2.468-5.5-5.5v-22c0-0.276,0.224-0.5,0.5-0.5s0.5,0.224,0.5,0.5v22	c0,2.481,2.019,4.5,4.5,4.5h18c0.276,0,0.5,0.224,0.5,0.5S56.776,70,56.5,70z"/><path fill="#1f212b" d="M63.5,70h-5c-0.276,0-0.5-0.224-0.5-0.5s0.224-0.5,0.5-0.5h5c0.276,0,0.5,0.224,0.5,0.5	S63.776,70,63.5,70z"/><path fill="#1f212b" d="M66.5,70h-1c-0.276,0-0.5-0.224-0.5-0.5s0.224-0.5,0.5-0.5h1c0.276,0,0.5,0.224,0.5,0.5	S66.776,70,66.5,70z"/><path fill="#1f212b" d="M20,66c-2.757,0-5-2.243-5-5V42c0-2.757,2.243-5,5-5s5,2.243,5,5v19C25,63.757,22.757,66,20,66z M20,39c-1.654,0-3,1.346-3,3v19c0,1.654,1.346,3,3,3s3-1.346,3-3V42C23,40.346,21.654,39,20,39z"/><path fill="#1f212b" d="M41,89c-2.757,0-5-2.243-5-5V74c0-0.553,0.447-1,1-1s1,0.447,1,1v10c0,1.654,1.346,3,3,3s3-1.346,3-3	V74c0-0.553,0.447-1,1-1s1,0.447,1,1v10C46,86.757,43.757,89,41,89z"/><path fill="#1f212b" d="M59,89c-2.757,0-5-2.243-5-5V74c0-0.553,0.447-1,1-1s1,0.447,1,1v10c0,1.654,1.346,3,3,3s3-1.346,3-3	V74c0-0.553,0.447-1,1-1s1,0.447,1,1v10C64,86.757,61.757,89,59,89z"/><path fill="#1f212b" d="M80,66c-2.757,0-5-2.243-5-5V42c0-2.757,2.243-5,5-5s5,2.243,5,5v19C85,63.757,82.757,66,80,66z M80,39c-1.654,0-3,1.346-3,3v19c0,1.654,1.346,3,3,3s3-1.346,3-3V42C83,40.346,81.654,39,80,39z"/><path fill="#1f212b" d="M71,34H29c-0.553,0-1-0.447-1-1c0-9.925,9.869-18,22-18s22,8.075,22,18C72,33.553,71.553,34,71,34z M30.039,32h39.922C69.313,23.642,60.608,17,50,17S30.687,23.642,30.039,32z"/><path fill="#1f212b" d="M41.5,29c-1.379,0-2.5-1.121-2.5-2.5s1.121-2.5,2.5-2.5s2.5,1.121,2.5,2.5S42.879,29,41.5,29z M41.5,25c-0.827,0-1.5,0.673-1.5,1.5s0.673,1.5,1.5,1.5s1.5-0.673,1.5-1.5S42.327,25,41.5,25z"/><path fill="#1f212b" d="M58.5,29c-1.379,0-2.5-1.121-2.5-2.5s1.121-2.5,2.5-2.5s2.5,1.121,2.5,2.5S59.879,29,58.5,29z M58.5,25c-0.827,0-1.5,0.673-1.5,1.5s0.673,1.5,1.5,1.5s1.5-0.673,1.5-1.5S59.327,25,58.5,25z"/><path fill="#1f212b" d="M37.228,20.113l-2.786-4.545c-0.863-1.411-0.419-3.262,0.99-4.126	c1.412-0.864,3.265-0.419,4.127,0.99l3.149,5.139l-0.595,0.2c-1.547,0.521-3.048,1.222-4.459,2.082L37.228,20.113z M36.997,12.001	c-0.356,0-0.718,0.095-1.043,0.294c-0.939,0.576-1.235,1.81-0.659,2.751l2.267,3.699c1.167-0.678,2.389-1.252,3.643-1.714	l-2.499-4.076C38.329,12.34,37.671,12.001,36.997,12.001z"/><path fill="#1f212b" d="M62.772,20.113l-0.427-0.26c-1.411-0.86-2.912-1.562-4.459-2.082l-0.595-0.2l3.149-5.14	c0.865-1.406,2.716-1.85,4.126-0.99c1.41,0.865,1.854,2.716,0.991,4.126L62.772,20.113z M58.796,17.031	c1.254,0.462,2.476,1.036,3.643,1.714l2.267-3.7c0.576-0.94,0.28-2.174-0.66-2.751c-0.939-0.57-2.174-0.277-2.751,0.661	L58.796,17.031z"/></svg>