<svg xmlns="http://www.w3.org/2000/svg" x="0px" y="0px" viewBox="0 0 100 100" style=" fill:#000000;">
    <path fill="#52bea0"
        d="M39,88.649L39,88.649c-7.18,0-13-5.82-13-13l0,0c0-7.18,5.82-13,13-13h13v13 C52,82.829,46.18,88.649,39,88.649z">
    </path>
    <path fill="#f599a0"
        d="M65.5,37.649H52v-25h13.5c6.904,0,12.5,5.596,12.5,12.5l0,0C78,32.052,72.404,37.649,65.5,37.649z"></path>
    <path fill="#e85654"
        d="M38.5,12.649H52v25H38.5c-6.904,0-12.5-5.596-12.5-12.5l0,0C26,18.245,31.596,12.649,38.5,12.649z"></path>
    <path fill="#787ab5"
        d="M38.5,37.649H52v25H38.5c-6.904,0-12.5-5.596-12.5-12.5l0,0C26,43.245,31.596,37.649,38.5,37.649z"></path>
    <circle cx="65.5" cy="51.149" r="11.5" fill="#39c1d7"></circle>
    <path fill="none" stroke="#1f212b" stroke-linecap="round" stroke-linejoin="round" stroke-miterlimit="10"
        stroke-width="2"
        d="M39,88.649L39,88.649c-7.18,0-13-5.82-13-13l0,0c0-7.18,5.82-13,13-13h13v13C52,82.829,46.18,88.649,39,88.649z">
    </path>
    <path fill="none" stroke="#1f212b" stroke-linecap="round" stroke-linejoin="round" stroke-miterlimit="10"
        d="M42.5,83.397 c-1.067,0.483-2.252,0.752-3.5,0.752l0,0c-4.694,0-8.5-3.806-8.5-8.5l0,0"></path>
    <path fill="none" stroke="#1f212b" stroke-linecap="round" stroke-linejoin="round" stroke-miterlimit="10"
        d="M46.212,80.149 c-0.34,0.544-0.741,1.047-1.192,1.5"></path>
    <path fill="none" stroke="#1f212b" stroke-linecap="round" stroke-linejoin="round" stroke-miterlimit="10"
        d="M47.5,72.149v3.5 c0,0.512-0.045,1.013-0.132,1.5"></path>
    <path fill="none" stroke="#1f212b" stroke-linecap="round" stroke-linejoin="round" stroke-miterlimit="10"
        d="M47.5,67.149v2"></path>
    <path fill="none" stroke="#1f212b" stroke-linecap="round" stroke-linejoin="round" stroke-miterlimit="10"
        stroke-width="2"
        d="M65.5,37.649H52v-25h13.5c6.904,0,12.5,5.596,12.5,12.5l0,0C78,32.052,72.404,37.649,65.5,37.649z"></path>
    <path fill="none" stroke="#1f212b" stroke-linecap="round" stroke-linejoin="round" stroke-miterlimit="10"
        d="M65.5,17.149 c4.418,0,8,3.582,8,8l0,0"></path>
    <path fill="none" stroke="#1f212b" stroke-linecap="round" stroke-linejoin="round" stroke-miterlimit="10"
        d="M56.86,17.149h5.64"></path>
    <path fill="none" stroke="#1f212b" stroke-linecap="round" stroke-linejoin="round" stroke-miterlimit="10"
        stroke-width="2"
        d="M38.5,12.649H52v25H38.5c-6.904,0-12.5-5.596-12.5-12.5l0,0C26,18.245,31.596,12.649,38.5,12.649z"></path>
    <path fill="none" stroke="#1f212b" stroke-linecap="round" stroke-linejoin="round" stroke-miterlimit="10"
        stroke-width="2"
        d="M38.5,37.649H52v25H38.5c-6.904,0-12.5-5.596-12.5-12.5l0,0C26,43.245,31.596,37.649,38.5,37.649z"></path>
    <circle cx="65.5" cy="51.149" r="11.5" fill="none" stroke="#1f212b" stroke-linecap="round" stroke-linejoin="round"
        stroke-miterlimit="10" stroke-width="2"></circle>
    <path fill="none" stroke="#1f212b" stroke-linecap="round" stroke-linejoin="round" stroke-miterlimit="10"
        d="M60.138,46.649 c1.284-1.528,3.21-2.5,5.362-2.5"></path>
    <path fill="none" stroke="#1f212b" stroke-linecap="round" stroke-linejoin="round" stroke-miterlimit="10"
        d="M59.174,54.149 c-0.432-0.909-0.674-1.926-0.674-3"></path>
    <path fill="none" stroke="#1f212b" stroke-linecap="round" stroke-linejoin="round" stroke-miterlimit="10"
        d="M70.862,55.649 c-1.284,1.528-3.21,2.5-5.362,2.5c-1.074,0-2.091-0.242-3-0.674"></path>
    <path fill="none" stroke="#1f212b" stroke-linecap="round" stroke-linejoin="round" stroke-miterlimit="10"
        d="M72.5,51.149 c0,0.695-0.101,1.366-0.29,2"></path>
</svg>