<svg xmlns="http://www.w3.org/2000/svg" width="100" height="100" x="0" y="0" viewBox="0 0 100 100" style="fill:#000"><polygon fill="#f16e7c" points="29.434 25.293 50 40.657 70.566 25.293 70.566 48 50 63 29.434 48"/><path fill="#ead032" d="M70.566,47.554L87.91,34.849v-4.808c0-5.002-4.055-9.056-9.056-9.056h-2.046l-6.242,4.308	C70.566,25.293,70.566,47.554,70.566,47.554z"/><path fill="#e85654" d="M29.434,47.554L12.089,34.849v-4.808c0-5.002,4.055-9.056,9.056-9.056h2.046l6.242,4.308	L29.434,47.554L29.434,47.554z"/><path fill="#8cc78c" d="M70,48l18.362-13.638v38.926c0,3.155-2.557,5.712-5.712,5.712H70V48z"/><path fill="#40a6dd" d="M30,48L11.638,34.362v38.926c0,3.155,2.557,5.712,5.712,5.712H30V48z"/><path fill="#1f212b" d="M78.99,20c-2.186,0-4.265,0.695-6.012,2.011L50,39.328L27.021,22.011C25.274,20.695,23.195,20,21,20	c-5.514,0-10,4.486-10,10v44c0,3.309,2.691,6,6,6h13c0.553,0,1-0.447,1-1V50.092L49.4,63.8c0.18,0.13,0.39,0.2,0.6,0.2	s0.41-0.06,0.59-0.19L69,50.514V79c0,0.553,0.447,1,1,1h13c3.309,0,6-2.691,6-6V30C89,24.486,84.514,20,78.99,20z M74.182,23.608	C75.579,22.557,77.242,22,79,22c4.411,0,8,3.589,8,8v4.799L71,46.724V46.6V26.006L74.182,23.608z M21.01,22	c1.748,0,3.411,0.557,4.809,1.608L29,26.006V46.6v0.124L13,34.799V30C13,25.589,16.589,22,21.01,22z M29,78H17c-2.206,0-4-1.794-4-4	V36.047l16,11.924v0.823V49V78z M50.01,61.76L30,47.322V26.76l19.398,14.619c0.017,0.013,0.037,0.015,0.054,0.026	c0.059,0.039,0.122,0.064,0.187,0.089c0.057,0.022,0.111,0.047,0.17,0.059c0.066,0.013,0.13,0.011,0.197,0.01	c0.061,0,0.12,0.002,0.18-0.009c0.062-0.012,0.12-0.038,0.18-0.062c0.063-0.025,0.124-0.049,0.181-0.087	c0.017-0.011,0.037-0.013,0.054-0.026L70,26.76v20.562L50.01,61.76z M83,78H71V49.07v-0.174V48.5v-0.528l16-11.924V74	C87,76.206,85.206,78,83,78z"/><path fill="#1f212b" d="M16.5,61c0.276,0,0.5-0.224,0.5-0.5v-2c0-0.276-0.224-0.5-0.5-0.5S16,58.224,16,58.5v2	C16,60.776,16.224,61,16.5,61z"/><path fill="#1f212b" d="M16.5,52c0.276,0,0.5-0.224,0.5-0.5v-7c0-0.276-0.224-0.5-0.5-0.5S16,44.224,16,44.5v7	C16,51.776,16.224,52,16.5,52z"/><path fill="#1f212b" d="M24.5,74h-7c-0.275,0-0.5-0.225-0.5-0.5v-10c0-0.276-0.224-0.5-0.5-0.5S16,63.224,16,63.5v10	c0,0.827,0.673,1.5,1.5,1.5h7c0.276,0,0.5-0.224,0.5-0.5S24.776,74,24.5,74z"/><path fill="#1f212b" d="M42.801,40.16c-0.22-0.164-0.532-0.123-0.7,0.099c-0.166,0.221-0.122,0.534,0.099,0.7l2.047,1.542	c0.09,0.067,0.195,0.101,0.301,0.101c0.151,0,0.301-0.068,0.399-0.199c0.166-0.221,0.122-0.534-0.099-0.7L42.801,40.16z"/><path fill="#1f212b" d="M46.444,42.905c-0.219-0.164-0.533-0.123-0.7,0.099c-0.166,0.221-0.122,0.534,0.099,0.7l2.914,2.195	C48.847,45.967,48.952,46,49.058,46c0.151,0,0.301-0.068,0.399-0.199c0.166-0.221,0.122-0.534-0.099-0.7L46.444,42.905z"/><path fill="#1f212b" d="M55.306,41.587l-3.337,2.514c-0.221,0.166-0.265,0.479-0.099,0.7C51.969,44.932,52.118,45,52.27,45	c0.105,0,0.211-0.033,0.301-0.101l3.337-2.514c0.221-0.166,0.265-0.479,0.099-0.7C55.839,41.464,55.524,41.423,55.306,41.587z"/><path fill="#1f212b" d="M58.682,39.044l-1.778,1.339c-0.221,0.166-0.265,0.479-0.099,0.7	c0.099,0.131,0.248,0.199,0.399,0.199c0.105,0,0.211-0.033,0.301-0.101l1.778-1.339c0.221-0.166,0.265-0.479,0.099-0.7	C59.215,38.92,58.9,38.88,58.682,39.044z"/><path fill="#1f212b" d="M66.899,33.479c-0.167-0.222-0.481-0.263-0.7-0.099l-5.919,4.46c-0.221,0.166-0.265,0.479-0.099,0.7	c0.099,0.131,0.248,0.199,0.399,0.199c0.105,0,0.211-0.033,0.301-0.101l5.919-4.459C67.021,34.014,67.065,33.7,66.899,33.479z"/><path fill="#1f212b" d="M16.5,56c0.276,0,0.5-0.224,0.5-0.5v-1c0-0.276-0.224-0.5-0.5-0.5S16,54.224,16,54.5v1	C16,55.776,16.224,56,16.5,56z"/></svg>